<svg height="512" viewBox="0 0 512 512" width="512" xmlns="http://www.w3.org/2000/svg" xmlns:xlink="http://www.w3.org/1999/xlink"><linearGradient id="linear-gradient" gradientUnits="userSpaceOnUse" x1="-3.123" x2="465.162" y1="458.133" y2="-10.152"><stop offset="0" stop-color="#41dfd0"/><stop offset="1" stop-color="#ee83ef"/></linearGradient><g id="gradient"><path d="m16.077 466.213a32 32 0 0 0 31.877 29.787c.75 0 1.505-.025 2.261-.078a32 32 0 1 0 -34.138-29.71zm19.854-12.713a15.9 15.9 0 0 1 10.963-5.458c.378-.027.755-.039 1.131-.039a16 16 0 1 1 -12.094 5.5zm57.7-23.815a8 8 0 1 1 0-11.314 8 8 0 0 1 .004 11.309zm22.627-33.941a8 8 0 1 1 -11.314 0 8 8 0 0 1 11.318-.005zm22.627-22.627a8 8 0 1 1 -11.313 0 8 8 0 0 1 11.317-.005zm22.628-22.628a8 8 0 1 1 -11.314 0 8 8 0 0 1 11.318-.005zm332.635-331.6a8 8 0 0 0 -8.727-2.46l-400 136a8 8 0 0 0 -3.055 13.258l60.154 59.581 41.824 137.07a7.989 7.989 0 0 0 14.054 2.448c.036-.045.073-.085.108-.133l35.115-49.153 56.749 56.21a8 8 0 0 0 5.63 2.316 7.851 7.851 0 0 0 1.111-.078 8 8 0 0 0 5.865-4.006l192-342.021a8 8 0 0 0 -.824-9.035zm-79.277 38.424-264.011 153.687-48.046-47.589zm2.105 17.287-221.621 190.842a8 8 0 0 0 -2.742 5.291l-4.7 48.47-28.828-94.476zm-214.134 256.457 4.072-42.015 15.191 15.047zm91.324 21.888-81.808-81.03 246.411-212.186z" fill="url(#linear-gradient)"/></g></svg>